# xmcd
#
# Track frame offsets:
# 150
# 3384
# 24751
# 43968
# 59720
# 79747
# 95722
# 114471
# 133583
# 145268
# 169312
# 188302
# 207876
# 215413
# 230543
#
# Disc length: 3319 seconds
#
#
# Revision: 0
# Processed by: cddbd v1.5PL3 Copyright (c) Steve Scherf et al.
# Submitted via: FreeRIP 2.60 
#
DISCID=cf0cf50f
DTITLE=Angie Stone - Black Diamond
DYEAR=1900
DGENRE=Blues
TTITLE0=Freedom (intro)
TTITLE1=No More Rain (in this cloud)
TTITLE2=Green Grass Vapors
TTITLE3=Everyday
TTITLE4=Coulda Been You
TTITLE5=Visions
TTITLE6=Life Story
TTITLE7=Just A Pimp
TTITLE8=Trouble Man
TTITLE9=Bone 2 Pic (Wit U)
TTITLE10=Man Loves His Money
TTITLE11=Love Junkie
TTITLE12=Black Diamonds and Blue Pearls (interlude)
TTITLE13=Heaven Help
TTITLE14=(Untitled)
EXTD=
EXTT0=
EXTT1=
EXTT2=
EXTT3=
EXTT4=
EXTT5=
EXTT6=
EXTT7=
EXTT8=
EXTT9=
EXTT10=
EXTT11=
EXTT12=
EXTT13=
EXTT14=
PLAYORDER=
